<svg width="115" height="34" viewBox="0 0 115 34" fill="none" xmlns="http://www.w3.org/2000/svg">
<g clip-path="url(#clip0)">
<path d="M28.881 0H8.1266C6.14001 0 4.52643 1.62347 4.52643 3.62223V18.5539C4.52643 18.5792 4.52643 18.6087 4.52643 18.634C4.54319 21.9948 8.63372 23.6267 10.9807 21.2358L19.2792 12.7727L13.7217 9.33176L15.1216 7.92335L21.7854 10.1414L24.4845 7.31192C24.9204 6.85651 25.6287 6.73844 26.1526 7.08843C26.8609 7.56493 26.9196 8.54322 26.337 9.10406L23.4912 11.8534L25.6957 18.5581L24.2959 19.9665L20.8802 14.3793L13.8936 21.6785C9.97907 25.7646 12.7955 32.6211 18.4367 32.6717C18.4787 32.6717 18.5206 32.6717 18.5625 32.6717C26.3118 32.6717 32.5985 26.3507 32.5985 18.5497V3.7403C32.5985 1.67407 30.9346 0 28.881 0Z" fill="url(#paint0_linear)"/>
<g opacity="0.26">
<path opacity="0.26" d="M16.8609 23.7743C16.6932 23.6731 16.5004 23.6267 16.3118 23.5845C16.1903 23.5592 16.0688 23.5297 15.9472 23.5044C15.5952 23.4285 15.2473 23.3484 14.8952 23.2725C14.7569 23.243 14.5893 23.1839 14.5641 23.0448C14.5474 22.9605 14.5893 22.8803 14.6102 22.8002C14.6312 22.7201 14.6102 22.6105 14.5306 22.5852C14.4468 22.3532 14.1995 22.2099 13.9774 22.1129C13.7553 22.0159 13.5122 21.9526 13.3068 21.8219C13.1182 21.7038 12.9631 21.531 12.8667 21.3286C12.7201 21.0165 12.2004 21.0292 11.8609 21.0629C11.7184 21.0755 11.5801 21.1135 11.4418 21.1514C11.1693 21.2231 10.9011 21.2948 10.6287 21.3665C10.5993 21.3749 10.57 21.3792 10.5407 21.3876C10.5407 21.3876 10.5407 21.3876 10.5365 21.3876C10.5323 21.3876 10.5281 21.3876 10.5239 21.3876C10.4988 21.3918 10.4778 21.396 10.4527 21.4002C10.1467 21.4508 9.92877 21.3286 9.88267 21.3117C9.79885 21.2737 9.71922 21.2189 9.66473 21.1599C9.57253 21.0629 9.52642 20.9237 9.51804 20.7888C9.50966 20.6539 9.50966 20.5231 9.51804 20.3882C9.52642 20.2786 9.41745 20.19 9.30849 20.1689C9.19952 20.1479 9.08636 20.1689 8.97739 20.1647C8.86842 20.1563 8.74269 20.1057 8.70916 20.0003C8.6882 19.9328 8.70916 19.8653 8.73011 19.7979C8.7846 19.6334 8.80974 19.4226 8.95224 19.3256C9.03606 19.2665 9.14084 19.1864 9.1115 19.0852C9.09474 19.0262 9.04026 18.9882 8.97739 18.9798C8.91871 18.9714 8.86004 18.9924 8.80555 19.0177C8.52894 19.1569 8.36129 19.5069 8.05115 19.5491C7.7913 19.587 7.55241 19.372 7.46859 19.1232C7.38057 18.8744 7.40153 18.5919 7.4141 18.3304C7.42668 18.0521 7.63204 17.7907 7.90027 17.719C8.0302 17.6852 8.1685 17.6895 8.30262 17.681C8.43673 17.6726 8.5499 17.5883 8.67563 17.5419C8.85585 17.4744 9.06959 17.4997 9.22886 17.6093C9.47613 17.7822 9.56414 18.1069 9.73598 18.3557C9.78208 18.4232 9.85752 18.4906 9.93715 18.4696C9.99583 18.4527 10.0335 18.3852 10.0335 18.322C10.0335 18.2587 10.0419 18.1744 10.0377 18.1154C10.0294 17.9467 10.021 17.778 10.0461 17.6136C10.0713 17.4491 10.1299 17.2804 10.2431 17.1581C10.4233 16.96 10.7418 16.8967 10.8089 16.6353C10.8592 16.4244 11.031 16.2642 11.2071 16.1419C11.3831 16.0196 11.5801 15.9184 11.731 15.7666C11.8567 15.6359 11.9279 15.4672 12.0118 15.307C12.1249 15.0877 12.3429 14.9275 12.5859 14.8937C12.7578 14.8684 12.9631 14.8895 13.0721 14.7503C13.1559 14.6449 13.1308 14.4847 13.0637 14.3666C12.9925 14.2486 12.8877 14.16 12.7997 14.0588C12.7117 13.9576 12.6362 13.8269 12.653 13.6919C12.6698 13.557 12.7745 13.4516 12.8961 13.3925C13.0176 13.3377 13.1517 13.3251 13.2859 13.3251C13.5247 13.3209 13.772 13.3377 14.0025 13.2618C14.2289 13.1859 14.4384 12.9835 14.43 12.7389C14.4175 12.5112 14.2289 12.3426 14.0654 12.1823C13.9983 12.1149 13.9313 12.0305 13.8852 11.9377C13.8852 11.9335 13.881 11.9335 13.881 11.9293C13.8768 11.9209 13.8726 11.9124 13.8684 11.904C13.8642 11.8956 13.86 11.8871 13.8558 11.8787C13.7343 11.6088 13.7846 11.3727 13.7888 11.3052C13.7972 11.2209 13.7888 11.1197 13.7217 11.0733C13.6379 11.0143 13.5247 11.0733 13.4493 11.1408C13.3739 11.2082 13.2942 11.2968 13.1936 11.2926C13.0679 11.2926 12.9799 11.1534 12.9715 11.0269C12.9589 10.9004 12.9967 10.7739 12.9883 10.6474C12.9757 10.4239 12.7703 10.2848 12.6027 10.1414C12.4812 10.0402 12.2968 9.99381 12.1584 10.0697C12.0579 10.1245 11.9992 10.2299 11.9405 10.3311C11.8273 10.5336 11.71 10.7402 11.6932 10.9721C11.6807 11.1408 11.7184 11.3052 11.7016 11.4739C11.6932 11.5582 11.6639 11.6594 11.6136 11.7396C11.6136 11.7396 11.6136 11.7396 11.6136 11.7438C11.5382 11.8618 11.425 12.0643 11.4166 12.1655C11.404 12.3173 11.3705 12.4691 11.3202 12.6124C11.2993 12.6757 11.2657 12.7432 11.2071 12.7727C11.1232 12.8148 11.0143 12.76 10.964 12.6757C10.9137 12.5956 10.9053 12.4944 10.8927 12.4016C10.7963 11.748 10.3521 11.1366 9.76532 10.8414C9.53481 10.7233 9.47194 10.4028 9.56414 10.1583C9.65635 9.9179 9.8659 9.73658 10.0671 9.57634C10.4569 9.26852 10.8634 9.01973 11.2615 8.72455C11.4208 8.60648 11.5801 8.48841 11.7435 8.37034C11.8902 8.26492 12.0411 8.14685 12.0998 7.97396C12.1291 7.88541 12.1333 7.7842 12.1501 7.69144C12.1668 7.59867 12.2129 7.50168 12.2968 7.4553C12.4392 7.38361 12.6069 7.49746 12.7159 7.61132C12.8793 7.7842 12.9799 7.99505 13.1014 8.19745C13.1014 8.19745 13.1014 8.19745 13.1014 8.20167C13.2649 8.48841 13.1224 8.69925 12.9883 8.77515C12.7955 8.88057 12.6027 8.98599 12.4057 9.09563C12.3303 9.1378 12.2381 9.20948 12.2632 9.29382C12.2884 9.38237 12.4141 9.38659 12.5063 9.39924C12.6698 9.42032 12.8081 9.53417 12.9045 9.6649C13.0009 9.79983 13.1224 9.9432 13.1601 10.1034C13.1895 10.2342 13.3403 10.3185 13.4745 10.2932C13.6086 10.2679 13.7133 10.1583 13.7553 10.0275C13.7972 9.89682 13.7804 9.75767 13.7343 9.63116C13.6882 9.50466 13.6882 9.3402 13.5876 9.25165C13.5289 9.19683 13.5541 9.08298 13.6337 9.06189C13.6924 9.04503 13.7553 9.08298 13.7972 9.12515C13.8391 9.17153 13.8684 9.22635 13.9145 9.26852C13.99 9.33599 14.1115 9.34864 14.2121 9.31912C14.2666 9.29803 14.363 9.22213 14.3043 9.02816C14.233 8.80467 14.1576 8.58118 14.0864 8.35769C14.0151 8.14263 13.9439 7.92758 13.8768 7.71252C13.8181 7.53963 13.7301 7.37518 13.575 7.27819C13.2691 7.08843 13.0134 6.82278 12.8374 6.51073C12.762 6.3758 12.6949 6.22821 12.5943 6.11014C12.4895 5.99207 12.28 5.80653 12.1501 5.89086C11.907 6.05532 11.7184 6.30833 11.6262 6.58664C11.5926 6.69627 11.5717 6.81434 11.6052 6.92398C11.6429 7.03783 11.731 7.12217 11.7938 7.21916C11.8609 7.31614 11.8609 7.44686 11.819 7.5565C11.7854 7.64505 11.7519 7.73782 11.689 7.80951C11.6262 7.88119 11.5298 7.93179 11.4376 7.91071C11.3202 7.88541 11.2532 7.7589 11.2154 7.64505C11.161 7.47216 11.1568 7.28662 11.1735 7.1053C11.1987 6.83121 11.2238 6.55712 11.249 6.28724C11.2574 6.20291 11.2657 6.11857 11.3202 6.0511C11.3957 5.95833 11.5256 5.9499 11.6429 5.9246C11.7603 5.90351 11.8902 5.83183 11.8944 5.71376C11.8944 5.64629 11.8525 5.58304 11.7938 5.55352C11.7351 5.524 11.6639 5.51979 11.601 5.53244C11.3999 5.57039 11.2532 5.74328 11.14 5.91617C10.9598 6.19447 10.9514 6.5529 10.7963 6.84808C10.7209 6.99145 10.7167 7.1559 10.7167 7.31614C10.7167 7.47638 10.7167 7.64083 10.6538 7.78842C10.591 7.93601 10.4443 8.0583 10.285 8.03721C10.1383 8.02035 10.0335 7.88962 9.92458 7.79264C9.75694 7.64505 9.51804 7.64083 9.31687 7.54385C9.22886 7.50168 9.12827 7.54806 9.04445 7.59867C8.96062 7.64927 8.86842 7.70409 8.77202 7.67457C8.6882 7.64927 8.6421 7.56915 8.58342 7.5059C8.43254 7.33301 8.17689 7.34988 7.95056 7.29927C7.90865 7.29084 7.86255 7.27819 7.82483 7.24867C7.7913 7.21916 7.76616 7.17277 7.78292 7.1306C7.79969 7.08843 7.84579 7.07157 7.8877 7.06313C7.92961 7.0547 7.97571 7.04627 8.00924 7.02097C8.04277 6.99145 8.05534 6.91133 8.0302 6.87759C7.92961 6.74266 7.80388 6.62037 7.66138 6.53182C7.61109 6.49808 7.50631 6.44326 7.4644 6.40531C7.4644 6.40531 7.4644 6.40531 7.4602 6.4011C7.45601 6.39688 7.45601 6.39688 7.45182 6.39266C7.40572 6.35471 7.34285 6.33363 7.27999 6.32098C7.19197 6.30411 7.09977 6.29146 7.0369 6.22821C6.97404 6.16496 6.96146 6.07219 6.91955 5.99207C6.85668 5.88243 6.73095 5.81496 6.60522 5.79388C6.47948 5.77279 6.33699 5.73906 6.21544 5.77701C6.02684 5.83183 5.84243 5.89086 5.64964 5.92038C5.56582 5.93303 5.482 5.94147 5.39818 5.9246C5.31855 5.90773 5.25568 5.80653 5.18862 5.75171C4.74017 5.39328 4.24143 5.04329 3.94805 4.54571C3.84327 4.3686 3.67144 4.22945 3.47026 4.17041C3.29005 4.11981 3.0302 4.08186 2.86674 4.20415C2.6991 4.33065 2.53145 4.45294 2.36381 4.57944C2.28837 4.63426 2.20874 4.69329 2.12073 4.71438C2.02014 4.73546 1.90279 4.71438 1.81896 4.77341C1.76029 4.81558 1.73514 4.88305 1.72676 4.95474C1.72257 5.02642 1.7058 5.10654 1.73095 5.16979C1.81477 5.39328 1.89021 5.68846 1.78544 5.90351C1.74352 5.99207 1.62617 6.01315 1.53397 5.99207C1.44176 5.97098 1.35794 5.91617 1.26993 5.88243C1.12743 5.83605 0.963978 5.85713 0.838244 5.93725C0.712511 6.01737 0.683173 6.15652 0.637071 6.29989C0.603542 6.4011 0.653835 6.52338 0.750231 6.56977C0.909493 6.6541 1.13581 6.5023 1.30765 6.5529C1.35375 6.53603 1.40824 6.58242 1.41243 6.63724C1.41662 6.68784 1.38309 6.73422 1.35375 6.77639C1.18192 6.98723 0.926257 7.10108 0.683173 7.21916C0.440088 7.33723 0.167666 7.46795 0.0670791 7.72095C0.00421234 7.88541 0.0167857 8.07516 0.100608 8.22697C0.129946 8.28179 0.167666 8.32817 0.192812 8.38299C0.217959 8.43781 0.255679 8.52636 0.213768 8.57275C0.167666 8.62756 0.150901 8.70768 0.171857 8.77515C0.197004 8.84262 0.264061 8.87214 0.33531 8.87635C0.398177 8.88057 0.461044 8.88479 0.519719 8.91009C0.578395 8.93539 0.628688 8.98599 0.632879 9.04924C0.641262 9.1378 0.565822 9.20948 0.494573 9.26852C0.360457 9.37815 0.22215 9.48779 0.0880346 9.60164C0.0503146 9.63538 0.00421234 9.67333 0.0125946 9.72393C0.0167857 9.77032 0.0628879 9.80405 0.113181 9.80827C0.159284 9.81248 0.205386 9.79562 0.247297 9.77875C0.435897 9.70285 0.628688 9.58899 0.838244 9.54683C1.01008 9.50887 1.13581 9.35285 1.20287 9.1884C1.27412 9.02394 1.30765 8.84684 1.38728 8.6866C1.46691 8.53479 1.59264 8.40407 1.74352 8.31974C1.8022 8.286 1.87345 8.2607 1.93632 8.28179C1.99918 8.30287 2.02433 8.37877 1.99499 8.43781C1.95308 8.51793 1.87764 8.57696 1.80639 8.636C1.73514 8.69503 1.66808 8.7625 1.64713 8.85527C1.63036 8.94382 1.67228 9.01129 1.76448 9.00708C1.8986 9.02816 2.02433 8.93117 2.12492 8.8384C2.2255 8.74142 2.34705 8.62756 2.48116 8.62756C2.87513 8.62756 3.19365 9.02816 3.4535 9.32334C3.65467 9.54683 3.85166 9.78297 3.9732 10.0571C4.19114 10.542 4.28334 11.1155 4.13665 11.6299C4.05283 11.9209 4.14503 12.254 4.36716 12.4564C4.4426 12.5281 4.539 12.5871 4.57253 12.6883C4.60606 12.7895 4.56834 12.8992 4.53481 12.9962C4.32944 13.5486 4.03606 14.0588 3.96482 14.6449C3.89776 15.1889 3.89357 15.8088 4.24143 16.2347C4.62701 16.7027 4.74017 17.2846 4.9162 17.8623C5.00002 18.1364 5.12156 18.3937 5.27663 18.6298C5.32693 18.7015 5.38979 18.7816 5.47781 18.7858C5.53229 18.79 5.58678 18.7563 5.61192 18.7099C5.63707 18.6635 5.6245 18.5876 5.61611 18.5328C5.59935 18.3979 5.52391 18.284 5.44847 18.1702C5.28921 17.9256 5.05451 17.6473 5.03774 17.3563C5.03355 17.2636 5.02517 17.1708 5.02098 17.078C5.02098 17.0485 5.01679 17.0232 5.02936 16.9937C5.03774 16.9684 5.06289 16.9431 5.09222 16.9473C5.12156 16.9473 5.18443 16.9895 5.16767 17.0148C5.18443 17.3648 5.40656 17.6684 5.61611 17.9509C5.73766 18.1154 5.94302 18.2925 5.99331 18.4906C6.08552 18.8533 6.21544 19.2117 6.43757 19.5111C6.6597 19.8105 6.96565 20.0635 7.32609 20.1436C7.64461 20.2153 7.99667 20.3039 8.31938 20.3587C8.64629 20.4135 8.93548 20.6412 9.06121 20.949C9.14084 21.1388 9.16599 21.3623 9.31268 21.5099C9.47194 21.6701 9.74017 21.6575 9.9623 21.6785C10.109 21.6954 10.2431 21.7797 10.3227 21.902C10.4024 22.0243 10.4191 22.1846 10.373 22.3237C10.3269 22.4587 10.2263 22.5683 10.1467 22.6906C9.95811 22.9773 10.0126 23.3273 9.95392 23.6647C9.86171 24.196 10.1551 24.7062 10.4359 25.1616C10.6622 25.5285 10.7879 25.9712 11.1274 26.2369C11.534 26.5532 11.7519 27.0676 11.8232 27.5821C11.8902 28.0965 12.0076 28.6995 11.8106 29.176C11.5801 29.7368 11.3496 30.3525 11.5172 30.9386C11.6052 31.2422 11.7938 31.5121 11.8818 31.8157C11.9531 32.0603 11.9531 32.3175 11.9908 32.5705C12.0285 32.8235 12.1082 33.0808 12.2926 33.2536C12.4937 33.435 12.6278 33.688 12.8332 33.8651C12.9087 33.9283 12.9967 33.9916 13.0931 34C13.1936 34.0085 13.3026 33.9452 13.3152 33.8482C13.3194 33.7934 13.2984 33.7428 13.2775 33.6964C13.1559 33.4265 13.0386 33.1567 12.917 32.8868C12.8709 32.7814 12.9045 32.6844 12.9548 32.5832C13.005 32.482 13.0889 32.3976 13.1517 32.3006C13.2146 32.2037 13.2523 32.0814 13.2062 31.976C13.1601 31.8705 13.0386 31.8115 13.005 31.7019C12.9799 31.6091 13.026 31.5121 13.0847 31.4404C13.1475 31.3687 13.223 31.3097 13.2775 31.2338C13.4158 31.0483 13.3906 30.7615 13.2272 30.6013C13.1853 30.441 13.2817 30.2597 13.399 30.1459C13.5122 30.0278 13.6631 29.9561 13.8056 29.876C13.948 29.8001 14.0947 29.7115 14.1869 29.5766C14.1702 29.4079 14.233 29.2477 14.363 29.1381C14.4887 29.0284 14.6396 28.9483 14.7611 28.8344C15.0922 28.5182 15.1383 28.0122 15.3353 27.5947C15.5239 27.1983 15.8592 26.8736 16.2615 26.705C16.4501 26.4182 16.5382 26.0303 16.5549 25.6887C16.5633 25.52 16.5465 25.3472 16.5843 25.1827C16.622 25.0182 16.7226 24.8538 16.886 24.8032C17.0704 24.7442 17.2045 24.4405 17.1878 24.2424C17.1668 24.0442 17.0285 23.8755 16.8609 23.7743Z" fill="white"/>
<path opacity="0.26" d="M6.4334 5.38476C6.3412 5.49018 6.29509 5.63777 6.32024 5.77693C6.3412 5.91608 6.42921 6.04258 6.55075 6.11427C6.59685 6.13957 6.65134 6.16065 6.68906 6.19861C6.72678 6.23656 6.75193 6.29981 6.72259 6.34619C6.68906 6.40101 6.60524 6.39679 6.54237 6.37149C6.4795 6.34619 6.42083 6.31246 6.35377 6.32511C6.28252 6.34198 6.24061 6.41366 6.23223 6.48535C6.22804 6.55703 6.24899 6.6245 6.27414 6.69197C6.32024 6.82269 6.38311 6.97028 6.51303 7.01666C6.70163 7.07991 6.89861 6.88594 7.0956 6.92811C7.19199 6.94919 7.27162 7.02088 7.33868 7.09678C7.40574 7.16847 7.47699 7.24859 7.56919 7.28232C7.6614 7.31606 7.78713 7.28654 7.82485 7.19377C7.85838 7.10943 7.8039 7.01245 7.81647 6.92389C7.83323 6.80582 7.95059 6.73835 8.03441 6.65402C8.26911 6.43053 8.29007 6.0721 8.29426 5.75163C8.29426 5.68837 8.29426 5.62512 8.27749 5.5703C8.25654 5.51127 8.21044 5.46067 8.14757 5.45223C8.0386 5.43537 7.96316 5.55765 7.89191 5.64621C7.83324 5.71789 7.69074 5.86126 7.58596 5.82753C7.47699 5.78958 7.34287 5.58717 7.25905 5.50283C7.16685 5.41006 7.07045 5.3173 6.9531 5.26669C6.77707 5.19079 6.55913 5.24139 6.4334 5.38476Z" fill="white"/>
<path opacity="0.26" d="M5.84245 5.57039C5.90531 5.57882 5.96818 5.54087 6.01009 5.49449C6.052 5.4481 6.08134 5.38907 6.11487 5.33425C6.21545 5.16558 6.37053 5.03486 6.54655 4.95474C6.68905 4.89149 6.8525 4.86197 6.95309 4.7439C7.06625 4.61318 7.04949 4.38547 6.91956 4.27162C6.70582 4.0903 6.38729 4.27583 6.21126 4.42342C5.97656 4.62161 5.79634 4.89149 5.71252 5.19088C5.69157 5.26678 5.6748 5.34268 5.69157 5.41859C5.70833 5.49449 5.76701 5.56196 5.84245 5.57039Z" fill="white"/>
<path opacity="0.26" d="M7.87512 19.0135C7.82064 19.0135 7.74939 19.0304 7.74939 19.0852C7.74939 19.1232 7.7913 19.1485 7.82483 19.1696C7.94637 19.2286 8.06372 19.2876 8.18527 19.3467C8.3571 19.431 8.52894 19.5153 8.70916 19.5702C8.77202 19.5912 8.83908 19.6081 8.89775 19.587C9.2079 19.49 8.67982 19.2202 8.5918 19.178C8.37387 19.0726 8.12659 19.0135 7.87512 19.0135Z" fill="white"/>
<path opacity="0.26" d="M9.46775 19.6671C9.40069 19.6671 9.32106 19.6713 9.28753 19.7262C9.25819 19.7725 9.27496 19.8316 9.30848 19.8737C9.34201 19.9117 9.3965 19.9328 9.44679 19.9454C9.55157 19.9749 9.65635 19.9792 9.76532 19.9623C9.8701 19.9454 10.0168 19.8527 9.91201 19.7388C9.81561 19.6334 9.59348 19.6671 9.46775 19.6671Z" fill="white"/>
<path opacity="0.26" d="M19.56 8.53059C19.6731 8.36192 19.7192 8.14265 19.6438 7.95711C19.56 7.76735 19.3504 7.58603 19.4342 7.39627C19.4971 7.25712 19.6731 7.23182 19.8156 7.177C20.1383 7.0505 20.3479 6.67098 20.2724 6.32942C20.109 5.55353 20.3772 4.71018 20.9095 4.12404C20.9765 4.04814 21.052 3.97645 21.0939 3.88368C21.1358 3.79091 21.14 3.67284 21.0729 3.59694C20.9975 3.51261 20.8634 3.50839 20.7544 3.53791C20.6455 3.56742 20.5407 3.62224 20.4275 3.62646C20.3144 3.63068 20.1844 3.55899 20.1802 3.44514C20.176 3.33128 20.2934 3.25117 20.3814 3.17948C20.4694 3.10358 20.5365 2.95599 20.4443 2.8843C19.9833 2.53431 19.3714 2.37829 18.8223 2.56383C18.4828 2.67768 18.1601 2.90539 17.8039 2.89274C17.6069 2.8843 17.4141 2.79997 17.2171 2.77888C17.0201 2.75358 16.7854 2.81684 16.7058 3.00237C16.3118 3.26803 15.9095 3.63911 15.5155 3.90899C15.2557 4.08187 14.9791 4.28428 14.8994 4.58789C14.8408 4.80716 14.9078 5.06017 15.0671 5.22041C15.176 5.33004 15.3227 5.39751 15.4485 5.48607C15.5784 5.57462 15.6957 5.6969 15.7125 5.85293C15.7544 6.25352 15.9346 6.63725 15.9975 7.03363C16.0436 7.31194 16.0646 7.59446 16.031 7.87277C15.9807 8.28602 15.8047 8.68239 15.5323 8.99022C15.4275 9.10829 15.3814 9.2854 15.3395 9.4372C15.2976 9.589 15.3018 9.75768 15.3772 9.89261C15.4485 10.0233 15.5826 10.1203 15.6119 10.2679C15.6245 10.3354 15.6161 10.4071 15.6119 10.4745C15.6077 10.542 15.6161 10.6179 15.6622 10.6727C15.7083 10.7275 15.8843 10.736 15.943 10.7022C16.0771 10.6263 16.228 10.7571 16.3202 10.8793C16.4124 11.0016 16.5423 11.145 16.689 11.0986C16.8273 11.0522 16.8567 10.8709 16.886 10.7275C16.9866 10.2426 17.368 9.8631 17.7871 9.60587C18.2062 9.34865 18.6714 9.17998 19.0947 8.92697C19.2791 8.81733 19.4468 8.69926 19.56 8.53059Z" fill="white"/>
<path opacity="0.26" d="M18.2733 11.6931C18.3529 11.6088 18.3864 11.5076 18.4786 11.4317C18.5792 11.3516 18.7427 11.3052 18.8055 11.1871C18.8391 11.1196 18.8307 11.0353 18.7888 10.9721C18.7469 10.9088 18.6756 10.8666 18.6002 10.8582C18.3655 10.8202 18.1434 11.0395 17.9128 10.9931C17.7871 10.9678 17.6572 10.8708 17.544 10.9257C17.4476 10.9721 17.4225 11.1028 17.4602 11.1998C17.4979 11.2967 17.5817 11.3684 17.6614 11.4359C17.8081 11.5582 18.0847 11.8913 18.2733 11.6931Z" fill="white"/>
<path opacity="0.26" d="M44.7108 5.89929C44.6773 5.85712 44.6354 5.82761 44.606 5.78544C44.5348 5.69267 44.5222 5.56617 44.518 5.4481C44.5138 5.33003 44.5138 5.20774 44.4677 5.10232C44.4174 4.9969 44.3001 4.91256 44.1869 4.9463C44.0193 4.9969 43.8139 5.00955 43.6463 4.95051C43.3864 4.86196 43.2355 4.57522 42.9799 4.47823C42.7536 4.38968 42.5105 4.36016 42.2716 4.30956C42.0117 4.25053 41.7351 4.19571 41.4753 4.25896C41.2154 4.32643 40.9765 4.55835 40.9975 4.82401C41.0017 4.86618 40.964 4.90413 40.9262 4.92521C40.8927 4.9463 40.8508 4.95473 40.8131 4.96738C40.637 5.00955 40.461 5.0475 40.285 5.08967C40.2096 5.10653 40.1341 5.1234 40.0587 5.1234C39.9832 5.11919 39.9036 5.09388 39.8533 5.03907C39.7234 4.8957 39.5222 4.81136 39.3713 4.68907C39.3294 4.65534 39.2875 4.6216 39.233 4.63004C39.1911 4.63425 39.1576 4.66377 39.1241 4.68907C38.9732 4.80714 38.772 4.85774 38.5834 4.83244C38.1769 4.77763 37.7619 4.66377 37.368 4.5457C37.2045 4.4951 37.0285 4.50353 36.8692 4.56257C36.8357 4.57522 36.8064 4.59209 36.7896 4.6216C36.7687 4.66799 36.7938 4.71859 36.8189 4.76076C36.8776 4.85353 36.9405 4.98425 36.9866 5.08123C37.0075 5.1234 36.9866 5.17822 36.9573 5.21195C36.9237 5.24569 36.8776 5.26677 36.8357 5.28364C36.6303 5.37219 36.4208 5.46075 36.2154 5.55352C36.1065 5.5999 35.9891 5.6505 35.8718 5.62942C35.7754 5.61255 35.6915 5.54508 35.6287 5.46918C35.57 5.38906 35.5029 5.30472 35.461 5.21617C35.4317 5.1487 35.3646 5.10232 35.2976 5.08123C35.2263 5.06015 35.1551 5.05593 35.0796 5.05172C34.9665 5.0475 34.8324 5.0475 34.7276 5.00112C34.6857 4.98003 34.6354 5.01798 34.6144 5.06015C34.5935 5.10232 34.5977 5.15292 34.5851 5.1993C34.5599 5.32581 34.4552 5.43123 34.3336 5.4734C34.2121 5.51556 34.0738 5.50713 33.9522 5.4734C33.8265 5.43966 33.684 5.41436 33.5708 5.34689C33.42 5.26256 33.2062 5.31316 33.1182 5.46075C33.0679 5.54086 33.0344 5.65893 32.9422 5.6758C32.8458 5.69267 32.7703 5.57882 32.7787 5.48183C32.7871 5.38484 32.8458 5.30051 32.8877 5.21195C33.0428 4.89148 32.8542 4.53727 32.6781 4.22944C32.6153 4.12402 32.4518 4.09872 32.3596 4.17884C32.3093 4.22523 32.28 4.29269 32.2213 4.32221C32.1542 4.35173 32.0746 4.32643 32.0243 4.27161C31.974 4.22101 31.9573 4.14089 31.9195 4.07764C31.8483 3.95957 31.7728 3.83728 31.6555 3.76138C31.5381 3.68548 31.3705 3.67283 31.2699 3.7656C31.1903 3.8415 31.1735 3.968 31.207 4.07342C31.2406 4.17884 31.3202 4.28426 31.4208 4.33486C31.5046 4.37703 31.5381 4.49088 31.5046 4.58365C31.4711 4.67221 31.3915 4.73967 31.3076 4.77763C31.2238 4.81979 31.1274 4.84088 31.0394 4.87039C30.8047 4.95051 30.6664 5.18244 30.4485 5.30472C30.373 5.34689 30.3185 5.42279 30.3018 5.50713C30.285 5.59147 30.306 5.68424 30.3604 5.7517C30.4023 5.80652 30.461 5.84026 30.5029 5.89508C30.5448 5.94568 30.57 6.0258 30.5323 6.08061C30.5029 6.12278 30.4526 6.13965 30.4023 6.13543C30.3521 6.13122 30.306 6.10592 30.2557 6.1017C30.1802 6.09748 30.109 6.15652 30.0796 6.22399C30.0503 6.29567 30.0545 6.37579 30.0796 6.45169C30.1048 6.52338 30.1425 6.56555 30.1886 6.6288C30.2263 6.68362 30.264 6.73843 30.2808 6.80169C30.2976 6.86494 30.285 6.94084 30.2347 6.98301C30.176 7.02939 30.0922 7.02096 30.0251 6.98722C29.9581 6.95349 29.9036 6.90289 29.8407 6.86494C29.7779 6.82699 29.6899 6.77217 29.6396 6.82699C29.5348 6.94506 29.5348 7.12638 29.5851 7.27818C29.6354 7.42999 29.7276 7.56071 29.7779 7.71251C29.8282 7.86432 29.8617 8.06672 29.7402 8.16793C29.6438 8.24383 29.4971 8.21009 29.4091 8.12154C29.3252 8.03299 29.2875 7.9107 29.2498 7.79263C29.1953 7.60288 29.1366 7.4089 29.0821 7.21915C29.0612 7.15168 29.0402 7.07999 28.9983 7.02096C28.9564 6.96192 28.8894 6.91554 28.8181 6.91976C28.6924 6.92819 28.6211 7.07578 28.6169 7.2065C28.6002 7.58179 28.9271 7.93179 28.86 8.29865C28.8474 8.37455 28.7594 8.42093 28.684 8.4125C28.6086 8.40407 28.5415 8.35768 28.4828 8.30708C28.4241 8.25648 28.3697 8.20166 28.2984 8.16793C28.2272 8.13419 28.1391 8.13419 28.0805 8.18479C28.0092 8.25226 28.0511 8.34925 28.0511 8.44624C28.0511 8.52635 27.9757 8.58539 27.9044 8.61069C27.829 8.64021 27.7494 8.64442 27.6823 8.68238C27.6153 8.72033 27.5608 8.78358 27.4895 8.8131C27.3931 8.85105 27.2297 8.81731 27.2255 8.71189C27.2255 8.63177 27.1542 8.56009 27.0746 8.55587C26.9782 8.55166 26.8986 8.63599 26.8483 8.72033C26.798 8.80466 26.7603 8.9143 26.6764 8.9649C26.6555 9.02394 26.5842 9.05345 26.5172 9.05345C26.4543 9.05345 26.3915 9.03237 26.3286 9.02394C26.2699 9.01972 26.207 9.03237 26.1693 9.07454C26.1274 9.1167 26.1232 9.22634 26.1651 9.26429C26.1819 9.31068 26.1945 9.35706 26.1945 9.40766C26.1945 9.45826 26.1777 9.50887 26.14 9.53417C26.0729 9.58477 25.9723 9.56368 25.8969 9.52573C25.8005 9.47935 25.6832 9.55525 25.6371 9.65224C25.5868 9.74922 25.5826 9.85886 25.549 9.96006C25.5155 10.0613 25.4359 10.1625 25.3269 10.1625C25.2179 10.1625 25.1383 10.0571 25.0796 9.96006C25.0126 9.85043 24.9413 9.73657 24.8743 9.62694C24.8491 9.58899 24.824 9.54682 24.824 9.50043C24.824 9.42453 24.8952 9.3655 24.9707 9.35285C25.0461 9.3402 25.1215 9.35706 25.1928 9.36971C25.2682 9.38236 25.3479 9.38658 25.4149 9.35285C25.5323 9.28959 25.5532 9.12092 25.4904 9.00285C25.4317 8.88478 25.3604 8.7878 25.2305 8.75828C24.8952 8.68659 24.5348 8.60226 24.3169 8.3366C24.2414 8.24383 24.1827 8.12576 24.0821 8.06672C23.9816 8.00769 23.8516 8.01191 23.7385 8.04986C23.6253 8.08781 23.5457 8.18901 23.4325 8.23118C22.9547 8.40407 22.6236 8.80045 22.3219 9.21369C22.1626 9.43296 22.1081 9.70706 22.0159 9.96006C21.9237 10.2131 21.7561 10.4829 21.513 10.601C21.4669 10.6221 21.425 10.6432 21.3873 10.6769C21.3537 10.7107 21.3286 10.7613 21.3328 10.8076C21.3412 10.8582 21.3747 10.8962 21.3915 10.9426C21.4082 10.989 21.3998 11.0438 21.3956 11.0902C21.3789 11.2167 21.3789 11.3432 21.3747 11.4697C21.3747 11.5371 21.3915 11.6046 21.4334 11.6552C21.4753 11.7058 21.5507 11.7311 21.6094 11.71C21.71 11.6763 21.7477 11.5456 21.8441 11.5076C21.9447 11.4655 22.062 11.5456 22.0998 11.6468C22.1375 11.748 22.1039 11.8618 22.1333 11.9673C22.1584 12.06 22.1836 12.1486 22.2045 12.2413C22.2255 12.313 22.2506 12.3932 22.3177 12.4227C22.3806 12.448 22.4518 12.4185 22.5147 12.3847C22.6069 12.3383 22.7033 12.2877 22.7787 12.2076C22.85 12.1275 22.9003 12.0136 22.8877 11.9082C22.8248 11.339 22.6446 10.6558 22.9966 10.2089C23.0721 10.1161 23.1517 10.0275 23.2355 9.9432C23.2942 9.88416 23.3571 9.82934 23.4325 9.79561C23.508 9.75766 23.5918 9.74501 23.6714 9.77031C23.751 9.79561 23.8139 9.87151 23.8139 9.95163C23.8139 10.0275 23.7636 10.095 23.7133 10.1583C23.6295 10.2595 23.5708 10.3691 23.4786 10.4619C23.3571 10.5841 23.3361 10.7866 23.4241 10.9299C23.5163 11.0733 23.7008 11.107 23.8726 11.0944C24.0319 11.0817 24.1953 11.0986 24.3546 11.1365C24.4091 11.1492 24.4719 11.1787 24.4719 11.2335C24.4761 11.2884 24.4174 11.3263 24.363 11.339C24.2498 11.3685 24.1199 11.3474 24.0151 11.398C23.8768 11.4612 23.7972 11.6552 23.8558 11.7944C23.8894 11.8703 23.8097 11.9504 23.7301 11.9757C23.6505 12.001 23.5625 11.9968 23.4954 12.0432C23.3697 12.1275 23.3822 12.313 23.3319 12.4564C23.2607 12.6462 23.0553 12.76 22.8542 12.7811C22.653 12.8022 22.4392 12.7769 22.2422 12.7305C22.083 12.6925 21.9573 12.5534 21.9279 12.3932C21.9195 12.351 21.9195 12.313 21.907 12.2751C21.8944 12.2371 21.8609 12.2034 21.8231 12.1992C21.7728 12.195 21.7309 12.2456 21.7267 12.2962C21.7226 12.3468 21.7393 12.3932 21.7603 12.4438C21.7938 12.5239 21.8231 12.5745 21.8189 12.663C21.8148 12.7516 21.7603 12.8275 21.689 12.8781C21.622 12.9287 21.5381 12.9624 21.4627 13.0004C21.1609 13.148 20.8634 13.3588 20.7376 13.6751C20.6957 13.7847 20.57 13.8395 20.461 13.8775C20.3395 13.9238 20.2179 13.966 20.1006 14.0124C19.9958 14.0504 19.8743 14.1094 19.8491 14.219C19.8282 14.3202 19.9036 14.4172 19.9832 14.4805C20.0629 14.5479 20.1551 14.6028 20.197 14.6997C20.2305 14.7756 20.2221 14.8684 20.176 14.9401C20.1299 15.0076 20.0461 15.0497 19.9623 15.0497C19.7988 15.0497 19.627 15.054 19.4761 15.1214C19.2749 15.2142 19.1827 15.4166 19.1199 15.6316C19.0444 15.8931 19.1408 16.1967 19.3504 16.3696C19.5599 16.5425 19.8785 16.572 20.1174 16.4413C20.5742 16.1967 20.6496 15.5178 21.0939 15.2564C21.3202 15.1214 21.601 15.1214 21.865 15.1256C22.3093 15.1341 22.5901 15.6654 22.7117 16.0955C22.7326 16.1714 22.7536 16.2557 22.8248 16.2895C22.8793 16.3148 22.9464 16.2937 22.9925 16.2515C23.0386 16.2094 23.0679 16.1545 23.093 16.0997C23.1391 16.0112 23.1852 15.91 23.1601 15.813C23.1308 15.6738 22.9799 15.6021 22.8583 15.5304C22.6949 15.4335 22.5524 15.3027 22.4434 15.1467C22.4015 15.0877 22.3638 15.0118 22.3973 14.9485C22.4267 14.8937 22.4979 14.8768 22.5608 14.8895C22.6195 14.9064 22.6697 14.9443 22.72 14.9823C23.135 15.3238 23.4996 15.7455 23.6211 16.2726C23.6379 16.3359 23.6505 16.3991 23.684 16.4539C23.7175 16.5087 23.7762 16.5509 23.8391 16.5425C23.9229 16.534 23.9732 16.4371 23.9732 16.3527C23.9732 16.2684 23.9313 16.1883 23.9019 16.1081C23.8726 16.028 23.8516 15.9353 23.8894 15.8594C23.9606 15.8045 24.0654 15.8172 24.1408 15.8678C24.2163 15.9184 24.2624 15.9985 24.3127 16.0744C24.4258 16.26 24.539 16.4455 24.6521 16.631C24.715 16.7364 24.8156 16.8039 24.9371 16.8166C25.0587 16.8292 25.1802 16.7955 25.3018 16.7744C25.4233 16.7491 25.549 16.7365 25.6664 16.7786C25.8173 16.8334 25.9262 16.9937 25.9179 17.1581C25.9137 17.3057 25.8382 17.4491 25.7041 17.5123C25.57 17.5756 25.4149 17.5756 25.2682 17.5714C25.0293 17.5672 24.7946 17.5587 24.5557 17.5545C24.3923 17.5503 24.2288 17.5461 24.078 17.4955C23.9271 17.4449 23.7678 17.3521 23.6211 17.4069C23.5289 17.4407 23.4661 17.5292 23.4074 17.6093C23.3487 17.6894 23.2775 17.7696 23.1811 17.7949C23.0847 17.8159 22.9631 17.7358 22.9841 17.6388C22.8793 17.466 22.6362 17.3352 22.435 17.3099C22.368 17.3015 22.2925 17.3015 22.2422 17.2593C22.1542 17.1876 22.1836 17.0485 22.1836 16.9346C22.1836 16.7365 22.0536 16.5467 21.8734 16.4708C21.6178 16.3654 21.3118 16.4202 21.0478 16.5087C20.7837 16.5973 20.5281 16.7238 20.2515 16.7618C20.1341 16.7786 20.0168 16.7828 19.9078 16.8166C19.7946 16.8503 19.6857 16.922 19.6479 17.0316C19.451 17.5714 18.9271 17.9593 18.5876 18.4232C18.3613 18.731 18.135 19.043 18.005 19.4015C17.938 19.5828 17.9505 19.781 17.9338 19.9749C17.9254 20.1014 17.9128 20.228 17.9044 20.3545C17.9003 20.4346 17.8919 20.5105 17.9003 20.5906C17.9128 20.7255 17.9631 20.8563 18.0511 20.9617C18.2984 21.0291 18.4283 21.3454 18.508 21.59C18.5876 21.8346 18.6547 22.1044 18.8516 22.2689C19.0235 22.408 19.2624 22.4376 19.4803 22.3954C19.6982 22.3532 19.8952 22.252 20.0922 22.1466C20.5407 21.9147 21.119 22.155 21.5549 22.408C21.6345 22.4544 21.7184 22.4882 21.7896 22.5472C21.8944 22.6315 22.0034 22.7369 22.0034 22.8677C21.9992 22.9731 21.9279 23.0616 21.8902 23.1628C21.8315 23.3315 21.9028 23.5381 22.0536 23.6351C22.5147 23.9261 22.6739 24.6261 22.4895 25.1405C22.4225 25.3303 22.3093 25.4989 22.2632 25.6929C22.2129 25.8869 22.2506 26.123 22.4183 26.2327C22.6404 26.376 22.6865 26.6712 22.7326 26.9284C22.7703 27.1435 22.7578 27.3628 22.7829 27.5778C22.808 27.7929 22.8835 28.0164 23.0595 28.1471C23.3152 28.3368 23.0595 28.826 23.2523 29.0748C23.3697 29.2308 23.5876 29.273 23.7804 29.2688C24.2288 29.2645 24.6689 29.0748 24.9832 28.7543C25.1425 28.5899 25.3353 28.438 25.4023 28.2188C25.4443 28.0796 25.4526 27.9194 25.5365 27.8013C25.6203 27.679 25.767 27.6158 25.8801 27.523C25.9975 27.4302 26.0939 27.27 26.0268 27.1393C25.9053 26.8989 25.9807 26.57 26.1358 26.3507C26.2657 26.1736 26.4585 26.0598 26.6178 25.9038C26.777 25.752 26.9028 25.5242 26.8273 25.3176C26.6681 24.8791 26.6597 24.3857 26.7687 23.9345C26.8776 23.4833 27.171 23.0616 27.5943 22.8761C27.8793 22.7538 28.093 22.5135 28.2565 22.2436C28.42 21.9737 28.4535 21.6026 28.2607 21.3623C28.1559 21.2273 27.9547 21.1683 27.7871 21.1388C27.6194 21.1093 27.4476 21.0924 27.2967 21.0123C27.1626 20.9406 27.0578 20.8183 27.0117 20.6792C26.974 20.5779 26.8609 20.5358 26.7854 20.4599C26.7016 20.3755 26.6471 20.2701 26.5884 20.1647C26.492 19.9876 26.3956 19.8063 26.2992 19.6292C26.0981 19.2539 25.9262 18.8448 25.7293 18.4696C25.6999 18.4105 25.6664 18.3473 25.6622 18.284C25.658 18.2165 25.6957 18.1449 25.7628 18.128C25.8382 18.1111 25.9095 18.1744 25.9598 18.2376C26.3831 18.7479 26.7309 19.3171 26.995 19.9243C27.0872 20.1394 27.1333 20.3798 27.2674 20.5695C27.4057 20.7593 27.6194 20.9069 27.8542 20.8984C28.0344 20.89 28.202 20.793 28.3571 20.696C28.5918 20.5526 28.8307 20.4051 29.0654 20.2617C29.2163 20.1689 29.3671 20.0761 29.4887 19.9454C29.606 19.8147 29.6899 19.6418 29.6731 19.4647C29.6563 19.2876 29.5138 19.1232 29.3378 19.1105C29.0905 19.1147 28.8265 19.0641 28.596 18.9714C28.4619 18.9207 28.3236 18.8406 28.2858 18.7015C28.2397 18.537 28.1308 18.4021 27.9883 18.3051C27.9464 18.2756 27.9044 18.2545 27.8667 18.2165C27.8332 18.1786 27.808 18.128 27.8248 18.0816C27.8374 18.0437 27.8709 18.0141 27.9086 18.0015C27.9464 17.9888 27.9883 17.9888 28.0302 17.9888C28.1056 17.9931 28.1769 18.0099 28.2439 18.0437C28.3822 18.1238 28.4619 18.284 28.5876 18.381C28.7133 18.478 28.8726 18.5412 29.0277 18.5286C29.1115 18.5202 29.1953 18.4906 29.2749 18.5033C29.3755 18.5159 29.4552 18.5918 29.5348 18.6509C29.6144 18.7099 29.7192 18.7647 29.8156 18.7352C30.088 18.6509 30.3982 18.7774 30.6832 18.8027C30.7628 18.8069 30.8424 18.8153 30.9095 18.8533C30.9765 18.8912 31.031 18.9713 31.0143 19.0473C30.9807 19.1948 31.0268 19.3509 31.1526 19.4352C31.2741 19.5195 31.4501 19.5153 31.5717 19.4225C31.6597 19.3551 31.7812 19.4478 31.8231 19.5491C31.865 19.6503 31.8525 19.7641 31.8525 19.8737C31.8483 20.1015 31.8944 20.3292 31.9824 20.5358C32.1081 20.8394 32.2506 21.143 32.4308 21.4171C32.4853 21.5014 32.5566 21.59 32.6572 21.5984C32.7619 21.6068 32.8542 21.5099 32.8877 21.4087C32.9212 21.3075 32.9086 21.1978 32.9128 21.0882C32.9254 20.7593 33.093 20.4388 33.3571 20.2406C33.5331 20.1057 33.6714 19.9286 33.8516 19.8021C33.9313 19.743 34.0151 19.6798 34.036 19.587C34.057 19.5069 34.0319 19.4141 34.0821 19.3509C34.1157 19.3045 34.1744 19.2876 34.233 19.2918C34.2875 19.296 34.342 19.3171 34.3923 19.3424C34.5641 19.4183 34.7402 19.4942 34.8659 19.6292C34.9455 19.7135 35.0168 19.8063 35.0419 19.9201C35.0671 20.034 35.0713 20.1521 35.1174 20.2575C35.1635 20.3629 35.2599 20.4599 35.373 20.4557C35.4275 20.4514 35.482 20.4261 35.5365 20.4261C35.6161 20.4261 35.6873 20.4852 35.7251 20.5569C35.7628 20.6285 35.7754 20.7087 35.7837 20.7888C35.8382 21.181 35.7754 21.6068 35.943 21.9653C35.9933 22.0749 36.0604 22.1761 36.1232 22.2773C36.2238 22.4333 36.3202 22.5851 36.4208 22.7412C36.4753 22.8255 36.5549 22.8635 36.6513 22.893C36.71 22.9141 36.7812 22.9225 36.8231 22.8761C36.8525 22.8424 36.8567 22.796 36.8441 22.7538C36.8315 22.7116 36.8022 22.6779 36.777 22.6442C36.6848 22.5261 36.622 22.3954 36.5423 22.2689C36.4627 22.1466 36.3789 22.0201 36.2992 21.8978C36.228 21.7924 36.1567 21.6827 36.1148 21.5605C36.0771 21.4382 36.0729 21.299 36.1358 21.1894C36.1735 21.1219 36.207 21.0671 36.2825 21.0587C36.3579 21.0502 36.4376 21.084 36.4795 21.1472C36.4837 21.2273 36.5801 21.2695 36.6555 21.2948C36.7309 21.3201 36.8148 21.3412 36.8567 21.4087C36.8986 21.4719 36.8818 21.5605 36.9279 21.6195C36.9614 21.6659 37.0285 21.687 37.0788 21.6701C37.1333 21.6532 37.171 21.5942 37.171 21.5352C37.1668 21.4635 37.2422 21.3623 37.3009 21.3201C37.3596 21.2779 37.4308 21.2442 37.4769 21.1894C37.5692 21.084 37.565 20.9111 37.4728 20.8099C37.2171 20.54 36.9698 20.2448 36.8944 19.8822C36.8818 19.8147 36.8692 19.7472 36.886 19.6798C36.9028 19.6123 36.9447 19.5491 37.0117 19.5322C37.1752 19.4858 37.347 19.4816 37.5147 19.4647C37.6194 19.4563 37.7284 19.4436 37.829 19.4099C37.9296 19.3762 38.026 19.3213 38.0889 19.2328C38.2146 19.0473 38.4283 18.946 38.6127 18.8238C38.7008 18.7647 38.7888 18.6804 38.7804 18.575C38.772 18.4569 38.8097 18.3515 38.8768 18.2545C38.9438 18.1575 39.0277 18.0732 39.0821 17.9678C39.1366 17.8623 39.1534 17.7274 39.0821 17.6346C39.0193 17.5503 38.9606 17.4575 38.9355 17.3605C38.9145 17.2804 38.9187 17.1961 38.9103 17.116C38.8894 16.9431 38.8055 16.7828 38.6798 16.6648C38.575 16.5678 38.5583 16.3696 38.6505 16.26C38.7008 16.2009 38.7846 16.1587 38.8013 16.0786C38.8181 15.9943 38.751 15.9184 38.6798 15.872C38.6086 15.8256 38.5247 15.7835 38.487 15.7076C38.4409 15.6106 38.4912 15.4883 38.5792 15.4292C38.6672 15.3702 38.7846 15.3744 38.8852 15.4082C39.057 15.4672 39.1827 15.6106 39.2875 15.7582C39.4174 15.9395 39.4761 16.163 39.5599 16.3696C39.5851 16.4286 39.6102 16.4919 39.6647 16.5298C39.7569 16.5973 39.8952 16.5593 39.9665 16.4708C40.0377 16.3822 40.0461 16.2557 40.0251 16.1461C40 16.0069 39.8826 15.8762 39.7946 15.7666C39.7318 15.6865 39.6689 15.6021 39.6438 15.5051C39.6018 15.3407 39.6773 15.1678 39.7527 15.016C39.8324 14.8558 39.912 14.6913 40.0377 14.5648C40.1257 14.4805 40.2347 14.413 40.3269 14.3329C40.4191 14.2528 40.4987 14.1431 40.5071 14.0208C40.5365 13.4769 40.7502 12.9624 40.6371 12.4269C40.5826 12.1823 40.4694 11.9588 40.3395 11.748C40.2431 11.5962 40.1215 11.4486 39.9539 11.3811C39.9246 11.3685 39.8952 11.36 39.8659 11.3474C39.7402 11.2926 39.6438 11.1703 39.6228 11.0353C39.6018 10.8962 39.6605 10.7528 39.7695 10.6643C39.8994 10.5588 39.9162 10.386 39.891 10.2173C39.8743 10.1287 39.8407 10.036 39.8617 9.94741C39.8785 9.87151 39.9329 9.81248 40 9.77031C40.0629 9.72814 40.1383 9.70706 40.2096 9.68597C40.5155 9.5932 40.8466 9.65645 41.1567 9.57633C41.2741 9.54682 41.3915 9.50465 41.4711 9.41188C41.5507 9.31911 41.5675 9.16731 41.4795 9.08719C41.4669 8.9396 41.4585 8.77936 41.4459 8.63177C41.4417 8.5643 41.4376 8.50105 41.4543 8.4378C41.4711 8.37455 41.513 8.31551 41.5759 8.29443C41.7225 8.24805 41.8692 8.44202 42.0159 8.39142C42.0704 8.42093 42.1249 8.35347 42.1417 8.29443C42.1584 8.2354 42.1668 8.15949 42.2255 8.13419C42.2842 8.10889 42.3554 8.15528 42.3764 8.21431C42.3973 8.27335 42.3847 8.34082 42.368 8.40407C42.3386 8.539 42.3051 8.67816 42.2758 8.8131C42.1878 9.20526 42.0997 9.5932 42.0117 9.98536C41.9614 10.2046 42.0159 10.4408 42.1417 10.6221C42.3806 10.9637 42.5524 11.3558 42.7452 11.7269C42.7703 11.7733 42.7997 11.8239 42.8458 11.8408C42.938 11.8745 43.026 11.7649 43.0302 11.6679C43.0344 11.5709 42.9841 11.4781 42.9715 11.3811C42.9338 11.145 43.0972 10.9299 43.1643 10.698C43.2649 10.3607 43.1643 9.98958 42.9715 9.69441C42.8541 9.51308 42.6697 9.37815 42.6446 9.16309C42.6153 8.94803 42.72 8.70768 42.9212 8.62756C43.0008 8.59382 43.0889 8.58961 43.1769 8.57696C43.2649 8.56431 43.3529 8.54744 43.42 8.49262C43.487 8.4378 43.5331 8.34503 43.4996 8.2607C43.4409 8.11733 43.5163 7.95709 43.6002 7.82637C43.6882 7.69565 43.793 7.56492 43.793 7.4089C43.793 7.32878 43.7678 7.23602 43.8223 7.17698C43.8474 7.14746 43.8894 7.13481 43.9187 7.10951C44.0025 7.04204 43.9816 6.8818 43.881 6.83964C43.7636 6.78904 43.6505 6.69627 43.6169 6.56976C43.5834 6.44748 43.6002 6.32097 43.6169 6.19447C43.6337 6.08061 43.6505 5.95833 43.7133 5.86134C43.7762 5.76435 43.8935 5.68845 44.0067 5.71797C44.1199 5.74749 44.2372 5.76014 44.3168 5.84447C44.3671 5.89508 44.4007 5.95833 44.4426 6.01736C44.4845 6.07218 44.5432 6.127 44.6102 6.13965C44.6815 6.15652 44.7611 6.11857 44.7821 6.0511C44.7653 5.99206 44.7402 5.93724 44.7108 5.89929ZM26.5549 15.4292C26.5088 15.5515 26.3663 15.6063 26.2364 15.5979C26.1106 15.5895 25.9891 15.5389 25.8634 15.5136C25.5784 15.4503 25.264 15.5304 25.0419 15.7202C24.9455 15.8003 24.7946 15.9521 24.6647 15.8425C24.5725 15.7624 24.5767 15.5979 24.6144 15.4967C24.7192 15.1973 24.8575 14.9401 25.0964 14.725C25.1509 14.6744 25.2054 14.6238 25.2599 14.5775C25.2934 14.5479 25.3227 14.5184 25.3604 14.5015C25.4904 14.4425 25.6412 14.5269 25.7586 14.6112C25.9388 14.7377 26.1148 14.86 26.2951 14.9865C26.3705 15.0413 26.4501 15.0961 26.5046 15.1678C26.5591 15.2395 26.5884 15.3407 26.5549 15.4292ZM28.3864 16.3612C28.2188 16.4708 28.005 16.3485 27.9128 16.1967C27.8164 16.0365 27.8164 15.8256 27.7871 15.6443C27.7242 15.269 27.3009 14.8768 27.4811 14.4889C27.5482 14.3413 27.72 14.2443 27.8793 14.2781C28.0386 14.3118 28.1559 14.4847 28.1182 14.6407C28.0889 14.7588 27.9925 14.8473 27.9547 14.9654C27.9003 15.1383 27.9925 15.3238 28.1098 15.4588C28.2272 15.5937 28.3738 15.7118 28.4577 15.872C28.5415 16.0322 28.5373 16.26 28.3864 16.3612ZM29.4216 14.978C29.3755 15.0582 29.2959 15.1552 29.1953 15.1594C29.0612 15.1678 28.9522 15.016 28.9774 14.8853C28.9858 14.8515 28.9983 14.822 29.0109 14.7925C29.0277 14.7546 29.0444 14.7208 29.0612 14.6829C29.0738 14.6576 29.0863 14.6281 29.0989 14.6028C29.1283 14.5395 29.1618 14.472 29.2288 14.4425C29.539 14.316 29.5013 14.8389 29.4216 14.978Z" fill="white"/>
<path opacity="0.26" d="M19.8701 12.5028C19.9581 12.6251 20.0419 12.7685 20.0252 12.9203C19.9958 13.1311 19.3714 13.6034 19.8575 13.6582C20.2012 13.6962 20.7628 13.4348 20.5993 13.0089C20.5197 12.798 20.2934 12.6757 20.2096 12.4649C20.1593 12.3342 20.1719 12.1866 20.1383 12.0516C20.109 11.9167 20.0084 11.7733 19.8701 11.7776C19.7192 11.7818 19.627 11.9631 19.6522 12.1149C19.6773 12.2583 19.7779 12.3806 19.8701 12.5028Z" fill="white"/>
<path opacity="0.26" d="M19.0822 13.2829C19.0906 13.3293 19.0989 13.3757 19.1241 13.4136C19.1492 13.4516 19.187 13.4853 19.2331 13.4938C19.3127 13.5022 19.3797 13.4347 19.43 13.3757C19.5013 13.2871 19.5767 13.1986 19.6186 13.0932C19.7067 12.8612 19.5516 12.6124 19.2917 12.7432C19.1995 12.7895 19.1325 12.8781 19.0989 12.9751C19.0654 13.0763 19.0654 13.1817 19.0822 13.2829Z" fill="white"/>
<path opacity="0.26" d="M27.0537 7.93603C27.1165 7.96555 27.1962 7.98241 27.2465 7.93603C27.3429 7.83904 27.2004 7.69146 27.1585 7.60712C27.1165 7.51857 27.104 7.43845 27.083 7.34568C27.0369 7.16436 26.8399 6.87761 26.6262 7.05894C26.5717 7.10532 26.5465 7.17701 26.5424 7.24869C26.5424 7.32038 26.5591 7.38785 26.5885 7.45531C26.6765 7.66194 26.8483 7.83904 27.0537 7.93603Z" fill="white"/>
<path opacity="0.26" d="M27.1207 6.49807C27.2213 6.2282 27.3303 6.07639 27.5692 5.89929C27.762 5.7517 27.9757 5.5746 27.9925 5.33002C28.0009 5.22039 27.9338 5.08545 27.8248 5.09388C27.7662 5.0981 27.72 5.14448 27.6781 5.18665C27.4057 5.46496 27.1375 5.74748 26.8651 6.02579C26.7351 6.16073 26.5968 6.3294 26.6387 6.51072C26.7058 6.79325 27.0369 6.72578 27.1207 6.49807Z" fill="white"/>
<path opacity="0.26" d="M41.0394 13.1311C41.0813 13.2787 41.1568 13.4389 41.2741 13.5401C41.3202 13.5781 41.4963 13.6961 41.5549 13.6118C41.5968 13.5528 41.4208 13.2829 41.3915 13.207C41.3286 13.0468 41.2867 12.8823 41.2574 12.7136C41.2238 12.5028 41.2154 12.2877 41.1735 12.0811C41.1316 11.8703 41.0478 11.6636 40.8885 11.5203C40.8173 11.457 40.6957 11.4106 40.6245 11.4781C40.5784 11.5245 40.5784 11.6088 40.6119 11.6679C40.6413 11.7269 40.6957 11.7733 40.7377 11.8281C40.8802 12.001 40.9305 12.2329 40.9556 12.4564C40.9807 12.6841 40.9807 12.9118 41.0394 13.1311Z" fill="white"/>
<path opacity="0.26" d="M40.1425 16.8883C40.0587 16.9684 39.9917 17.0738 39.9875 17.1877C39.9749 17.4323 40.2808 17.5756 40.3814 17.3226C40.4233 17.213 40.4066 17.1371 40.4946 17.0317C40.591 16.9178 40.7083 16.8166 40.8341 16.7365C41.0394 16.6058 41.2825 16.513 41.425 16.3148C41.5969 16.0787 41.5801 15.7582 41.5591 15.4672C41.5508 15.3745 41.5256 15.2606 41.4376 15.2395C41.3789 15.2269 41.3202 15.2648 41.2867 15.3112C41.2532 15.3618 41.2406 15.4208 41.228 15.4799C41.1107 15.9564 40.8173 16.3907 40.4192 16.6817C40.3228 16.7491 40.2222 16.8082 40.1425 16.8883Z" fill="white"/>
<path opacity="0.26" d="M36.8148 23.5213C36.5591 23.2557 36.3035 22.99 36.0478 22.7244C35.9766 22.6484 35.9011 22.5725 35.8089 22.5346C35.7125 22.4924 35.5952 22.4966 35.5197 22.5683C35.4108 22.6737 35.4652 22.8719 35.5742 22.9774C35.6832 23.087 35.8299 23.1418 35.9472 23.2388C36.1023 23.3695 36.1945 23.5551 36.2867 23.7364C36.3831 23.9135 36.492 24.099 36.6681 24.2002C36.8106 24.2803 37.1417 24.3056 37.1961 24.099C37.2506 23.9008 36.9321 23.6394 36.8148 23.5213Z" fill="white"/>
<path opacity="0.26" d="M38.617 23.7405C38.6673 23.6393 38.5793 23.5128 38.617 23.4116C38.6715 23.2682 38.9187 23.2893 38.9816 23.1459C39.0319 23.0278 38.9104 22.9013 38.9104 22.7748C38.9104 22.5935 39.1492 22.4459 39.0906 22.273C39.0528 22.155 38.8894 22.1212 38.772 22.1718C38.6589 22.2224 38.5751 22.3236 38.487 22.4122C38.3026 22.5935 38.0847 22.6905 37.8374 22.758C37.6572 22.8043 37.5147 22.8634 37.4895 23.07C37.4309 23.5676 37.9464 23.7953 38.3404 23.829C38.4451 23.8332 38.5709 23.829 38.617 23.7405Z" fill="white"/>
<path opacity="0.26" d="M28.1475 25.3515C28.0553 25.3768 28.0008 25.4695 27.9673 25.5581C27.9338 25.6466 27.9086 25.7478 27.8416 25.8111C27.7326 25.9165 27.5482 25.9081 27.4434 26.0219C27.3386 26.1316 27.3638 26.2876 27.3386 26.4267C27.3177 26.5448 27.2632 26.6291 27.1794 26.7135C27.0201 26.8779 26.9824 27.1014 27.1752 27.2785C27.3135 27.4092 27.5398 27.4261 27.6991 27.3207C27.8709 27.2068 27.9338 26.9876 27.9631 26.7809C27.9925 26.5743 27.9966 26.3593 28.093 26.1779C28.1517 26.0725 28.2355 25.984 28.3026 25.8828C28.3697 25.7816 28.4241 25.6635 28.4074 25.5454C28.3822 25.4274 28.2649 25.3219 28.1475 25.3515Z" fill="white"/>
</g>
<path d="M37.2213 22.3448H39.8407V16.9051H46.6639V14.6744H39.8407V10.348H47.5314V8.13416H37.2213V22.3448Z" fill="black"/>
<path d="M51.513 7.28247H48.9899V22.3449H51.513V7.28247Z" fill="black"/>
<path d="M59.078 19.5238L55.6873 11.5035H53.0637L57.7661 22.3828L57.5859 22.8087C57.0997 23.884 56.5759 24.3099 55.6873 24.3099C55 24.3099 54.3168 24.0274 53.8307 23.5593L52.8206 25.4273C53.508 26.0556 54.6354 26.4225 55.7041 26.4225C57.5021 26.4225 58.8726 25.6719 59.8617 23.2135L64.9078 11.4993H62.4853L59.078 19.5238Z" fill="black"/>
<path d="M80.3318 8.13416L74.8247 17.5545L69.217 8.13416H67.0544V22.3448H69.5565V13.0467L74.2002 20.7213H75.3695L80.0091 12.9286L80.0301 22.3448H82.5112L82.4903 8.13416H80.3318Z" fill="black"/>
<path d="M89.5062 11.3853C86.3 11.3853 83.9362 13.7003 83.9362 16.9261C83.9362 20.152 86.2748 22.4881 89.8876 22.4881C91.7442 22.4881 93.2572 21.8809 94.2254 20.7212L92.8716 19.1568C92.1047 19.9496 91.1575 20.3333 89.9462 20.3333C88.0686 20.3333 86.7568 19.317 86.4551 17.7357H94.9085C94.9295 17.4912 94.9504 17.1876 94.9504 16.9852C94.9546 13.5949 92.6537 11.3853 89.5062 11.3853ZM86.4383 16.0532C86.6814 14.4719 87.8716 13.4135 89.5062 13.4135C91.1617 13.4135 92.3519 14.4888 92.5531 16.0532H86.4383Z" fill="black"/>
<path d="M100.658 11.0269C101.936 10.0359 102.33 9.30219 102.33 8.43353C102.33 7.295 101.324 6.46851 99.7862 6.46851C98.5289 6.46851 97.4392 6.99982 96.8566 7.80523L97.9882 8.63172C98.3948 8.14257 98.9564 7.86848 99.5348 7.86848C100.243 7.86848 100.603 8.19317 100.603 8.67389C100.603 9.1546 100.352 9.54255 99.5348 10.2004L96.2196 12.8148L96.0016 13.9111H101.509L101.777 12.5323H98.7217L100.658 11.0269Z" fill="url(#paint1_linear)"/>
<path d="M108.42 9.62275H106.852L106.584 10.9932H104.669L108.659 6.59509H106.823L102.54 11.2336L102.322 12.3721H106.241L105.926 13.9112H107.569L107.871 12.3721H109.065L109.346 10.9932H108.152L108.42 9.62275Z" fill="url(#paint2_linear)"/>
<path d="M109.346 3.18787V5.583H110.603V4.33905H113.462L110.729 10.504H112.171L115 4.09869V3.18787H109.346Z" fill="url(#paint3_linear)"/>
<path d="M67.154 24.7005C67.1065 24.5976 67.1818 24.4802 67.2951 24.4802C67.3369 24.4802 67.3769 24.4969 67.4063 24.5265C67.4861 24.607 67.5415 24.6638 67.5699 24.6995L67.8423 24.9652C70.2941 27.4741 74.5188 30 81.0066 30.0295C87.0889 30.0588 91.7527 27.4504 94.5135 24.6631C94.5494 24.6268 94.5978 24.6067 94.6487 24.6067C94.7895 24.6067 94.8807 24.7554 94.8158 24.8804C92.223 29.8713 87.6046 32.3482 80.9605 32.3192C74.0858 32.2901 69.4876 29.7492 67.154 24.7005Z" fill="url(#paint4_linear)"/>
</g>
<defs>
<linearGradient id="paint0_linear" x1="18.1929" y1="34.8486" x2="18.8612" y2="-7.55582" gradientUnits="userSpaceOnUse">
<stop stop-color="#3E8EBA"/>
<stop offset="1" stop-color="#4398D2"/>
</linearGradient>
<linearGradient id="paint1_linear" x1="96.0056" y1="10.1887" x2="102.333" y2="10.1887" gradientUnits="userSpaceOnUse">
<stop stop-color="#AD3B51"/>
<stop offset="1" stop-color="#D24A57"/>
</linearGradient>
<linearGradient id="paint2_linear" x1="102.323" y1="10.2515" x2="109.346" y2="10.2515" gradientUnits="userSpaceOnUse">
<stop stop-color="#AD3B51"/>
<stop offset="1" stop-color="#D24A57"/>
</linearGradient>
<linearGradient id="paint3_linear" x1="109.347" y1="6.84576" x2="114.998" y2="6.84576" gradientUnits="userSpaceOnUse">
<stop stop-color="#AD3B51"/>
<stop offset="1" stop-color="#D24A57"/>
</linearGradient>
<linearGradient id="paint4_linear" x1="67.0564" y1="28.4029" x2="94.9526" y2="28.4029" gradientUnits="userSpaceOnUse">
<stop stop-color="#3E8EBA"/>
<stop offset="1" stop-color="#4398D2"/>
</linearGradient>
<clipPath id="clip0">
<rect width="115" height="34" fill="white"/>
</clipPath>
</defs>
</svg>
